<?xml version="1.0" encoding="UTF-8"?>
<svg height="40" id="Camada_2" data-name="Camada 2" xmlns="http://www.w3.org/2000/svg" viewBox="0 0 70.87 15.16" preserveAspectRatio="xMidYMid meet"> 
  <defs>
    <style>
      .cls-1 {
        fill: #f9bc7c;
      }
    </style>
  </defs>
  <g id="Cartaz_1_p_finalizar" data-name="Cartaz 1 p/ finalizar">
    <g>
      <path class="cls-1" d="m15.5,14.62l-.54.54H1.03l-.55-.55,6.82-3.56.07-.04c.18.11.39.17.62.17s.43-.06.61-.17h0l.09.05,6.81,3.56Z"/>
      <path class="cls-1" d="m15.98,13.39l-.2.74-6.5-4.12-.11-.07c-.02-.42-.24-.78-.58-.98v-.17s-.33-7.59-.33-7.59l.73.2,6.97,12Z"/>
      <path class="cls-1" d="m7.71,1.2l-.32,7.61v.15c-.35.2-.58.56-.6.98l-.12.08L.19,14.12l-.19-.73L6.95,1.4l.75-.2Z"/>
      <polygon class="cls-1" points="35.84 5.84 35.84 0 33.51 0 33.51 3.5 19.5 3.5 19.5 12.84 34.5 12.84 35.84 10.51 35.84 10.51 21.84 10.51 21.84 5.84 35.84 5.84"/>
      <rect class="cls-1" x="44.02" y="3.5" width="2.34" height="5.84"/>
      <rect class="cls-1" x="51.02" y="3.5" width="2.34" height="5.84"/>
      <polygon class="cls-1" points="39.35 3.5 37.01 3.5 37.01 12.84 52.01 12.84 53.36 10.51 53.36 10.51 39.35 10.51 39.35 3.5"/>
      <rect class="cls-1" x="54.52" y="7" width="2.33" height="5.84"/>
      <rect class="cls-1" x="61.53" y="7" width="2.33" height="5.84"/>
      <polygon class="cls-1" points="55.87 3.5 54.52 5.84 54.52 5.84 68.53 5.84 68.53 12.84 70.87 12.84 70.87 3.5 55.87 3.5"/>
    </g>
  </g>
</svg>