<?xml version="1.0" encoding="UTF-8"?>
<svg id="Camada_2" data-name="Camada 2" xmlns="http://www.w3.org/2000/svg" viewBox="0 0 88.2 15.16">
  <defs>
    <style>
      .cls-1 {
        fill: #f9bc7c;
      }
    </style>
  </defs>
  <g id="Cartaz_1_p_finalizar" data-name="Cartaz 1 p/ finalizar">
    <g>
      <path class="cls-1" d="m15.44.59l-.59-.59H1.06L.47.59l6.88,3.66s0,0,0,0c.17-.11.38-.17.6-.17h0c.22,0,.42.06.6.17,0,0,0,0,0,0L15.44.59Z"/>
      <path class="cls-1" d="m7.7,14l-.27-7.79s0,0,0,0c-.19-.1-.34-.25-.45-.43-.1-.17-.15-.36-.15-.57,0-.01,0-.02,0-.03h0S.22,1.03.22,1.03l-.22.8,3.07,5.32.37.65.37.65,3.07,5.32.8.22Z"/>
      <path class="cls-1" d="m15.91,1.84l-.22-.8-6.61,4.13s0,.02,0,.04c0,.21-.06.4-.15.57-.11.18-.26.33-.45.43h0l-.27,7.79.8-.22,3.07-5.33.37-.65.37-.65,3.07-5.33Z"/>
      <polygon class="cls-1" points="24.28 5.83 22.92 8.16 35.74 8.16 35.74 2.33 19.41 2.33 19.41 11.66 34.39 11.66 35.74 9.34 35.74 9.33 21.75 9.33 21.75 4.67 33.41 4.67 33.41 5.83 24.28 5.83"/>
      <polygon class="cls-1" points="39.23 9.33 39.23 4.67 51.87 4.67 53.23 2.33 36.9 2.33 36.9 11.66 51.86 11.66 53.21 9.33 39.23 9.33"/>
      <polygon class="cls-1" points="68.38 5.83 68.38 9.33 56.72 9.33 56.72 4.67 69.36 4.67 70.71 2.33 54.39 2.33 54.39 11.66 68.38 11.66 68.38 12.83 55.74 12.83 54.39 15.16 70.71 15.16 70.71 5.83 68.38 5.83"/>
      <path class="cls-1" d="m78.88,11.66h2.33v-5.83h-2.33v5.83Zm-7,0h2.33v-5.83h-2.33v5.83Zm1.35-9.33l-1.35,2.33h13.99v7h2.33V2.33h-14.97Z"/>
    </g>
  </g>
</svg>